<svg version="1.1" viewBox="0.0 0.0 200.0 200.0" fill="none" stroke="none" stroke-linecap="square" stroke-miterlimit="10" xmlns:xlink="http://www.w3.org/1999/xlink" xmlns="http://www.w3.org/2000/svg"><clipPath id="p.0"><path d="m0 0l200.0 0l0 200.0l-200.0 0l0 -200.0z" clip-rule="nonzero"/></clipPath><g clip-path="url(#p.0)"><path fill="#000000" fill-opacity="0.0" d="m0 0l200.0 0l0 200.0l-200.0 0z" fill-rule="evenodd"/><path fill="#000000" fill-opacity="0.0" d="m36.17542 99.99844l127.65991 0" fill-rule="evenodd"/><path stroke="#8e3b46" stroke-width="3.0" stroke-linejoin="round" stroke-linecap="butt" d="m36.17542 99.99844l127.65991 0" fill-rule="evenodd"/><path fill="#000000" fill-opacity="0.0" d="m-0.041916225 99.997375l200.08472 0l0 99.99968l-200.08472 0z" fill-rule="evenodd"/><path fill="#8e3b46" d="m67.81993 144.97238q-4.515625 0 -6.875 -2.5q-2.359375 -2.515625 -2.359375 -7.125q0 -2.296875 0.71875 -4.09375q0.71875 -1.796875 1.96875 -3.03125q1.265625 -1.2500076 3.0 -1.8906326q1.734375 -0.640625 3.75 -0.640625q1.171875 0 2.125 0.1875q0.96875 0.171875 1.6875 0.40625q0.71875 0.21875 1.203125 0.453125q0.484375 0.234375 0.6875 0.375l-1.1875 3.3593826q-0.859375 -0.453125 -2.0 -0.765625q-1.125 -0.328125 -2.5625 -0.328125q-0.96875 0 -1.890625 0.328125q-0.90625 0.3125 -1.625 1.015625q-0.703125 0.703125 -1.125 1.828125q-0.421875 1.125 -0.421875 2.71875q0 1.28125 0.265625 2.390625q0.28125 1.09375 0.90625 1.90625q0.640625 0.796875 1.640625 1.265625q1.015625 0.453125 2.453125 0.453125q0.90625 0 1.625 -0.09375q0.734375 -0.109375 1.28125 -0.25q0.5625 -0.15625 0.984375 -0.34375q0.4375 -0.1875 0.78125 -0.34375l1.140625 3.328125q-0.875 0.53125 -2.484375 0.96875q-1.59375 0.421875 -3.6875 0.421875zm11.669022 -9.625q0 1.359375 0.328125 2.453125q0.34375 1.09375 0.96875 1.890625q0.625 0.78125 1.53125 1.203125q0.90625 0.421875 2.078125 0.421875q1.140625 0 2.0625 -0.421875q0.921875 -0.421875 1.546875 -1.203125q0.625 -0.796875 0.953125 -1.890625q0.34375 -1.09375 0.34375 -2.453125q0 -1.359375 -0.34375 -2.46875q-0.328125 -1.109375 -0.953125 -1.890625q-0.625 -0.78125 -1.546875 -1.203125q-0.921875 -0.4375 -2.0625 -0.4375q-1.171875 0 -2.078125 0.4375q-0.90625 0.4375 -1.53125 1.234375q-0.625 0.78125 -0.96875 1.890625q-0.328125 1.109375 -0.328125 2.4375zm14.09375 0q0 2.375 -0.703125 4.171875q-0.703125 1.796875 -1.9375 3.015625q-1.21875 1.203125 -2.921875 1.828125q-1.6875 0.609375 -3.625 0.609375q-1.890625 0 -3.578125 -0.609375q-1.671875 -0.625 -2.9375 -1.828125q-1.25 -1.21875 -1.96875 -3.015625q-0.71875 -1.796875 -0.71875 -4.171875q0 -2.375 0.75 -4.171875q0.75 -1.796875 2.015625 -3.015625q1.265625 -1.2343826 2.921875 -1.8437576q1.671875 -0.625 3.515625 -0.625q1.890625 0 3.5625 0.625q1.6875 0.609375 2.9375 1.8437576q1.25 1.21875 1.96875 3.015625q0.71875 1.796875 0.71875 4.171875zm8.370865 -9.218758q0.484375 0.875 1.109375 2.1718826q0.625 1.296875 1.296875 2.796875q0.6875 1.5 1.359375 3.078125q0.671875 1.578125 1.25 2.953125q0.59375 -1.375 1.25 -2.953125q0.671875 -1.578125 1.34375 -3.078125q0.6875 -1.5 1.3125 -2.796875q0.625 -1.2968826 1.109375 -2.1718826l3.78125 0q0.265625 1.828125 0.484375 4.1093826q0.234375 2.28125 0.40625 4.75q0.171875 2.46875 0.3125 4.953125q0.15625 2.46875 0.265625 4.65625l-4.046875 0q-0.09375 -2.6875 -0.234375 -5.859375q-0.125 -3.171875 -0.390625 -6.40625q-0.46875 1.125 -1.0625 2.484375q-0.578125 1.359375 -1.15625 2.71875q-0.578125 1.359375 -1.109375 2.609375q-0.53125 1.234375 -0.90625 2.109375l-2.90625 0q-0.375 -0.875 -0.90625 -2.109375q-0.53125 -1.25 -1.109375 -2.609375q-0.5625 -1.359375 -1.15625 -2.71875q-0.578125 -1.359375 -1.0625 -2.484375q-0.265625 3.234375 -0.40625 6.40625q-0.125 3.171875 -0.203125 5.859375l-4.0625 0q0.109375 -2.1875 0.25 -4.65625q0.15625 -2.484375 0.328125 -4.953125q0.171875 -2.46875 0.390625 -4.75q0.234375 -2.2812576 0.5 -4.1093826l3.96875 0zm23.910568 0q0.484375 0.875 1.109375 2.1718826q0.625 1.296875 1.296875 2.796875q0.6875 1.5 1.359375 3.078125q0.671875 1.578125 1.25 2.953125q0.59375 -1.375 1.25 -2.953125q0.671875 -1.578125 1.34375 -3.078125q0.6875 -1.5 1.3125 -2.796875q0.625 -1.2968826 1.109375 -2.1718826l3.78125 0q0.265625 1.828125 0.484375 4.1093826q0.234375 2.28125 0.40625 4.75q0.171875 2.46875 0.3125 4.953125q0.15625 2.46875 0.265625 4.65625l-4.046875 0q-0.09375 -2.6875 -0.234375 -5.859375q-0.125 -3.171875 -0.390625 -6.40625q-0.46875 1.125 -1.0625 2.484375q-0.578125 1.359375 -1.15625 2.71875q-0.578125 1.359375 -1.109375 2.609375q-0.53125 1.234375 -0.90625 2.109375l-2.90625 0q-0.375 -0.875 -0.90625 -2.109375q-0.53125 -1.25 -1.109375 -2.609375q-0.5625 -1.359375 -1.15625 -2.71875q-0.578125 -1.359375 -1.0625 -2.484375q-0.265625 3.234375 -0.40625 6.40625q-0.125 3.171875 -0.203125 5.859375l-4.0625 0q0.109375 -2.1875 0.25 -4.65625q0.15625 -2.484375 0.328125 -4.953125q0.171875 -2.46875 0.390625 -4.75q0.234375 -2.2812576 0.5 -4.1093826l3.96875 0z" fill-rule="nonzero"/><path fill="#000000" fill-opacity="0.0" d="m-0.0014980554 -0.0012419948l200.00323 0l0 99.99969l-200.00323 0z" fill-rule="evenodd"/><path fill="#8e3b46" d="m37.5612 74.97344q-1.953125 0 -3.375 -0.546875q-1.40625 -0.546875 -2.328123 -1.515625q-0.90625 -0.984375 -1.359375 -2.328125q-0.4375 -1.34375 -0.4375 -2.96875l0 -11.484375l4.171873 0l0 11.140625q0 1.125 0.25 1.90625q0.25 0.78125 0.6875 1.28125q0.4375 0.484375 1.0625 0.703125q0.625 0.21875 1.375 0.21875q1.515625 0 2.46875 -0.9375q0.953125 -0.9375 0.953125 -3.171875l0 -11.140625l4.15625 0l0 11.484375q0 1.625 -0.453125 2.984375q-0.453125 1.359375 -1.390625 2.34375q-0.9375 0.96875 -2.375 1.5q-1.4375 0.53125 -3.40625 0.53125zm24.017776 -0.375q-1.796875 -3.171875 -3.875 -6.265625q-2.078125 -3.09375 -4.421875 -5.84375l0 12.109375l-4.109375 0l0 -18.46875l3.390625 0q0.875 0.875 1.9375 2.15625q1.078125 1.28125 2.1875 2.734375q1.109375 1.453125 2.1875 3.015625q1.09375 1.546875 2.0625 2.984375l0 -10.890625l4.125004 0l0 18.46875l-3.4843788 0zm18.652058 0q-0.5625 -0.90625 -1.328125 -1.953125q-0.75 -1.0625 -1.640625 -2.109375q-0.890625 -1.0625 -1.859375 -2.03125q-0.953125 -0.96875 -1.90625 -1.71875l0 7.8125l-4.171875 0l0 -18.46875l4.171875 0l0 6.984375q1.625 -1.703125 3.265625 -3.5625q1.640625 -1.859375 3.046875 -3.421875l4.9375 0q-1.90625 2.234375 -3.8125 4.3125q-1.90625 2.078125 -4.0 4.1875q2.203125 1.84375 4.265625 4.375q2.078125 2.53125 3.96875 5.59375l-4.9375 0zm19.732803 0q-1.796875 -3.171875 -3.875 -6.265625q-2.078125 -3.09375 -4.421875 -5.84375l0 12.109375l-4.109375 0l0 -18.46875l3.390625 0q0.875 0.875 1.9375 2.15625q1.078125 1.28125 2.1875 2.734375q1.109375 1.453125 2.1875 3.015625q1.09375 1.546875 2.0625 2.984375l0 -10.890625l4.125 0l0 18.46875l-3.484375 0zm11.245804 -9.25q0 1.359375 0.328125 2.453125q0.34375 1.09375 0.96875 1.890625q0.625 0.78125 1.53125 1.203125q0.90625 0.421875 2.078125 0.421875q1.140625 0 2.0625 -0.421875q0.921875 -0.421875 1.546875 -1.203125q0.625 -0.796875 0.953125 -1.890625q0.34375 -1.09375 0.34375 -2.453125q0 -1.359375 -0.34375 -2.46875q-0.328125 -1.109375 -0.953125 -1.890625q-0.625 -0.78125 -1.546875 -1.203125q-0.921875 -0.4375 -2.0625 -0.4375q-1.171875 0 -2.078125 0.4375q-0.90625 0.4375 -1.53125 1.234375q-0.625 0.78125 -0.96875 1.890625q-0.328125 1.109375 -0.328125 2.4375zm14.09375 0q0 2.375 -0.703125 4.171875q-0.703125 1.796875 -1.9375 3.015625q-1.21875 1.203125 -2.921875 1.828125q-1.6875 0.609375 -3.625 0.609375q-1.890625 0 -3.578125 -0.609375q-1.671875 -0.625 -2.9375 -1.828125q-1.25 -1.21875 -1.96875 -3.015625q-0.71875 -1.796875 -0.71875 -4.171875q0 -2.375 0.75 -4.171875q0.75 -1.796875 2.015625 -3.015625q1.265625 -1.234375 2.921875 -1.84375q1.671875 -0.625 3.515625 -0.625q1.890625 0 3.5625 0.625q1.6875 0.609375 2.9375 1.84375q1.25 1.21875 1.96875 3.015625q0.71875 1.796875 0.71875 4.171875zm15.604202 -7.25q0.3125 1.09375 0.703125 2.46875q0.390625 1.375 0.828125 2.84375q0.4375 1.453125 0.890625 2.921875q0.453125 1.46875 0.875 2.71875q0.34375 -1.359375 0.703125 -2.953125q0.375 -1.609375 0.6875 -3.3125q0.3125 -1.703125 0.625 -3.390625q0.3125 -1.703125 0.578125 -3.265625l4.3125 0q-0.9375 4.640625 -2.15625 9.40625q-1.203125 4.765625 -2.609375 9.0625l-3.8125 0q-0.9375 -2.5625 -1.8125 -5.375q-0.875 -2.8125 -1.734375 -5.640625q-0.859375 2.828125 -1.71875 5.640625q-0.84375 2.8125 -1.78125 5.375l-3.8125 0q-1.40625 -4.296875 -2.625 -9.0625q-1.203125 -4.765625 -2.140625 -9.40625l4.5 0q0.265625 1.5625 0.578125 3.265625q0.328125 1.6875 0.671875 3.390625q0.359375 1.703125 0.71875 3.3125q0.359375 1.59375 0.734375 2.953125q0.46875 -1.296875 0.921875 -2.765625q0.453125 -1.46875 0.875 -2.9375q0.4375 -1.46875 0.796875 -2.828125q0.359375 -1.359375 0.65625 -2.421875l3.546875 0zm25.270035 16.5q-1.796875 -3.171875 -3.875 -6.265625q-2.078125 -3.09375 -4.421875 -5.84375l0 12.109375l-4.109375 0l0 -18.46875l3.390625 0q0.875 0.875 1.9375 2.15625q1.078125 1.28125 2.1875 2.734375q1.109375 1.453125 2.1875 3.015625q1.09375 1.546875 2.0625 2.984375l0 -10.890625l4.125 0l0 18.46875l-3.484375 0z" fill-rule="nonzero"/></g></svg>