<svg version="1.1" viewBox="0.0 0.0 200.0 200.0" fill="none" stroke="none" stroke-linecap="square" stroke-miterlimit="10" xmlns:xlink="http://www.w3.org/1999/xlink" xmlns="http://www.w3.org/2000/svg"><clipPath id="p.0"><path d="m0 0l200.0 0l0 200.0l-200.0 0l0 -200.0z" clip-rule="nonzero"/></clipPath><g clip-path="url(#p.0)"><path fill="#000000" fill-opacity="0.0" d="m0 0l200.0 0l0 200.0l-200.0 0z" fill-rule="evenodd"/><path fill="#000000" fill-opacity="0.0" d="m36.17542 99.99844l127.65991 0" fill-rule="evenodd"/><path stroke="#bada55" stroke-width="3.0" stroke-linejoin="round" stroke-linecap="butt" d="m36.17542 99.99844l127.65991 0" fill-rule="evenodd"/><path fill="#000000" fill-opacity="0.0" d="m0.002702963 99.997375l200.08472 0l0 99.99968l-200.08472 0z" fill-rule="evenodd"/><path fill="#bada55" d="m67.86455 144.97238q-4.515621 0 -6.874996 -2.5q-2.359375 -2.515625 -2.359375 -7.125q0 -2.296875 0.71875 -4.09375q0.71875 -1.796875 1.96875 -3.03125q1.265625 -1.2500076 2.9999962 -1.8906326q1.734375 -0.640625 3.75 -0.640625q1.171875 0 2.125 0.1875q0.96875 0.171875 1.6875 0.40625q0.71875 0.21875 1.203125 0.453125q0.484375 0.234375 0.6875 0.375l-1.1875 3.3593826q-0.859375 -0.453125 -2.0 -0.765625q-1.125 -0.328125 -2.5625 -0.328125q-0.96875 0 -1.890625 0.328125q-0.90625 0.3125 -1.625 1.015625q-0.7031212 0.703125 -1.1249962 1.828125q-0.421875 1.125 -0.421875 2.71875q0 1.28125 0.265625 2.390625q0.28125 1.09375 0.9062462 1.90625q0.640625 0.796875 1.640625 1.265625q1.015625 0.453125 2.453125 0.453125q0.90625 0 1.625 -0.09375q0.734375 -0.109375 1.28125 -0.25q0.5625 -0.15625 0.984375 -0.34375q0.4375 -0.1875 0.78125 -0.34375l1.140625 3.328125q-0.875 0.53125 -2.484375 0.96875q-1.59375 0.421875 -3.6875 0.421875zm11.669022 -9.625q0 1.359375 0.328125 2.453125q0.34375 1.09375 0.96875 1.890625q0.625 0.78125 1.53125 1.203125q0.90625 0.421875 2.078125 0.421875q1.140625 0 2.0625 -0.421875q0.921875 -0.421875 1.546875 -1.203125q0.625 -0.796875 0.953125 -1.890625q0.34375 -1.09375 0.34375 -2.453125q0 -1.359375 -0.34375 -2.46875q-0.328125 -1.109375 -0.953125 -1.890625q-0.625 -0.78125 -1.546875 -1.203125q-0.921875 -0.4375 -2.0625 -0.4375q-1.171875 0 -2.078125 0.4375q-0.90625 0.4375 -1.53125 1.234375q-0.625 0.78125 -0.96875 1.890625q-0.328125 1.109375 -0.328125 2.4375zm14.09375 0q0 2.375 -0.703125 4.171875q-0.703125 1.796875 -1.9375 3.015625q-1.21875 1.203125 -2.921875 1.828125q-1.6875 0.609375 -3.625 0.609375q-1.890625 0 -3.578125 -0.609375q-1.671875 -0.625 -2.9375 -1.828125q-1.25 -1.21875 -1.96875 -3.015625q-0.71875 -1.796875 -0.71875 -4.171875q0 -2.375 0.75 -4.171875q0.75 -1.796875 2.015625 -3.015625q1.265625 -1.2343826 2.921875 -1.8437576q1.671875 -0.625 3.515625 -0.625q1.890625 0 3.5625 0.625q1.6875 0.609375 2.9375 1.8437576q1.25 1.21875 1.96875 3.015625q0.71875 1.796875 0.71875 4.171875zm8.370865 -9.218758q0.484375 0.875 1.109375 2.1718826q0.625 1.296875 1.296875 2.796875q0.6875 1.5 1.359375 3.078125q0.671875 1.578125 1.25 2.953125q0.59375 -1.375 1.25 -2.953125q0.671875 -1.578125 1.34375 -3.078125q0.6875 -1.5 1.3125 -2.796875q0.625 -1.2968826 1.109375 -2.1718826l3.78125 0q0.265625 1.828125 0.484375 4.1093826q0.234375 2.28125 0.40625 4.75q0.171875 2.46875 0.3125 4.953125q0.15625 2.46875 0.265625 4.65625l-4.046875 0q-0.09375 -2.6875 -0.234375 -5.859375q-0.125 -3.171875 -0.390625 -6.40625q-0.46875 1.125 -1.0625 2.484375q-0.578125 1.359375 -1.15625 2.71875q-0.578125 1.359375 -1.109375 2.609375q-0.53125 1.234375 -0.90625 2.109375l-2.90625 0q-0.375 -0.875 -0.90625 -2.109375q-0.53125 -1.25 -1.109375 -2.609375q-0.5625 -1.359375 -1.15625 -2.71875q-0.578125 -1.359375 -1.0625 -2.484375q-0.265625 3.234375 -0.40625 6.40625q-0.125 3.171875 -0.203125 5.859375l-4.0625 0q0.109375 -2.1875 0.25 -4.65625q0.15625 -2.484375 0.328125 -4.953125q0.171875 -2.46875 0.390625 -4.75q0.234375 -2.2812576 0.5 -4.1093826l3.96875 0zm23.910568 0q0.484375 0.875 1.109375 2.1718826q0.625 1.296875 1.296875 2.796875q0.6875 1.5 1.359375 3.078125q0.671875 1.578125 1.25 2.953125q0.59375 -1.375 1.25 -2.953125q0.671875 -1.578125 1.34375 -3.078125q0.6875 -1.5 1.3125 -2.796875q0.625 -1.2968826 1.109375 -2.1718826l3.78125 0q0.265625 1.828125 0.484375 4.1093826q0.234375 2.28125 0.40625 4.75q0.171875 2.46875 0.3125 4.953125q0.15625 2.46875 0.265625 4.65625l-4.046875 0q-0.09375 -2.6875 -0.234375 -5.859375q-0.125 -3.171875 -0.390625 -6.40625q-0.46875 1.125 -1.0625 2.484375q-0.578125 1.359375 -1.15625 2.71875q-0.578125 1.359375 -1.109375 2.609375q-0.53125 1.234375 -0.90625 2.109375l-2.90625 0q-0.375 -0.875 -0.90625 -2.109375q-0.53125 -1.25 -1.109375 -2.609375q-0.5625 -1.359375 -1.15625 -2.71875q-0.578125 -1.359375 -1.0625 -2.484375q-0.265625 3.234375 -0.40625 6.40625q-0.125 3.171875 -0.203125 5.859375l-4.0625 0q0.109375 -2.1875 0.25 -4.65625q0.15625 -2.484375 0.328125 -4.953125q0.171875 -2.46875 0.390625 -4.75q0.234375 -2.2812576 0.5 -4.1093826l3.96875 0z" fill-rule="nonzero"/><path fill="#000000" fill-opacity="0.0" d="m0.003751181 -0.0012419948l200.00323 0l0 99.99969l-200.00323 0z" fill-rule="evenodd"/><path fill="#bada55" d="m47.067608 74.59844q-1.09375 -2.3125 -2.171875 -4.8125q-1.0625 -2.515625 -2.015625 -4.96875q-0.953125 -2.453125 -1.765625 -4.6875q-0.8125 -2.25 -1.40625 -4.0l4.578125 0q0.546875 1.59375 1.171875 3.453125q0.625 1.84375 1.265625 3.6875q0.65625 1.84375 1.265625 3.53125q0.625 1.671875 1.15625 2.890625q0.5 -1.21875 1.125 -2.890625q0.640625 -1.6875 1.28125 -3.53125q0.65625 -1.84375 1.28125 -3.6875q0.625 -1.859375 1.15625 -3.453125l4.4375 0q-0.625 1.75 -1.421875 4.0q-0.796875 2.234375 -1.765625 4.6875q-0.953125 2.453125 -2.015625 4.96875q-1.0625 2.5 -2.15625 4.8125l-4.0 0zm13.745743 0l0 -18.46875l12.484379 0l0 3.484375l-8.3125 0l0 3.625l7.375 0l0 3.421875l-7.375 0l0 4.453125l8.921875 0l0 3.484375l-13.093754 0zm21.575504 -18.6875q4.15625 0 6.359375 1.484375q2.21875 1.46875 2.21875 4.59375q0 1.953125 -0.890625 3.171875q-0.890625 1.203125 -2.578125 1.890625q0.5625 0.703125 1.171875 1.59375q0.625 0.890625 1.21875 1.859375q0.59375 0.96875 1.15625 2.03125q0.5625 1.046875 1.046875 2.0625l-4.671875 0q-0.5 -0.90625 -1.03125 -1.828125q-0.515625 -0.9375 -1.0625 -1.8125q-0.546875 -0.890625 -1.078125 -1.671875q-0.53125 -0.796875 -1.0625 -1.4375l-2.046875 0l0 6.75l-4.171875 0l0 -18.203125q1.359375 -0.265625 2.8125 -0.375q1.453125 -0.109375 2.609375 -0.109375zm0.234375 3.546875q-0.453125 0 -0.8125 0.03125q-0.359375 0.015625 -0.671875 0.046875l0 5.015625l1.171875 0q2.34375 0 3.34375 -0.578125q1.015625 -0.59375 1.015625 -2.015625q0 -1.359375 -1.03125 -1.921875q-1.015625 -0.578125 -3.015625 -0.578125zm12.123398 -3.328125l4.171875 0l0 18.46875l-4.171875 0l0 -18.46875zm8.42334 18.46875l0 -18.46875l12.375 0l0 3.484375l-8.203125 0l0 3.875l7.296875 0l0 3.484375l-7.296875 0l0 7.625l-4.171875 0zm15.300629 -18.46875l4.171875 0l0 18.46875l-4.171875 0l0 -18.46875zm8.42334 18.46875l0 -18.46875l12.484375 0l0 3.484375l-8.3125 0l0 3.625l7.375 0l0 3.421875l-7.375 0l0 4.453125l8.921875 0l0 3.484375l-13.09375 0zm20.3255 -3.390625q0.28125 0.03125 0.671875 0.046875q0.390625 0.015625 0.921875 0.015625q3.125 0 4.625 -1.578125q1.5 -1.578125 1.5 -4.34375q0 -2.90625 -1.4375 -4.390625q-1.4375 -1.5 -4.546875 -1.5q-0.4375 0 -0.890625 0.015625q-0.453125 0.015625 -0.84375 0.0625l0 11.671875zm12.015625 -5.859375q0 2.40625 -0.75 4.1875q-0.75 1.78125 -2.125 2.953125q-1.359375 1.171875 -3.34375 1.765625q-1.96875 0.578125 -4.421875 0.578125q-1.109375 0 -2.609375 -0.09375q-1.484375 -0.09375 -2.9375 -0.375l0 -18.0q1.453125 -0.265625 3.0 -0.359375q1.5625 -0.09375 2.6875 -0.09375q2.375 0 4.296875 0.53125q1.9375 0.53125 3.3125 1.6875q1.390625 1.140625 2.140625 2.9375q0.75 1.78125 0.75 4.28125z" fill-rule="nonzero"/></g></svg>