<svg version="1.1" viewBox="0.0 0.0 200.0 200.0" fill="none" stroke="none" stroke-linecap="square" stroke-miterlimit="10" xmlns:xlink="http://www.w3.org/1999/xlink" xmlns="http://www.w3.org/2000/svg"><clipPath id="p.0"><path d="m0 0l200.0 0l0 200.0l-200.0 0l0 -200.0z" clip-rule="nonzero"/></clipPath><g clip-path="url(#p.0)"><path fill="#000000" fill-opacity="0.0" d="m0 0l200.0 0l0 200.0l-200.0 0z" fill-rule="evenodd"/><path fill="#000000" fill-opacity="0.0" d="m36.17542 99.99844l127.65991 0" fill-rule="evenodd"/><path stroke="#8e3b46" stroke-width="3.0" stroke-linejoin="round" stroke-linecap="butt" d="m36.17542 99.99844l127.65991 0" fill-rule="evenodd"/><path fill="#000000" fill-opacity="0.0" d="m-0.041916225 99.997375l200.08472 0l0 99.99968l-200.08472 0z" fill-rule="evenodd"/><path fill="#8e3b46" d="m81.795555 141.4255q0.875 0 1.453125 -0.140625q0.578125 -0.15625 0.921875 -0.40625q0.34375 -0.25 0.46875 -0.59375q0.140625 -0.359375 0.140625 -0.78125q0 -0.90625 -0.859375 -1.5q-0.84375 -0.609375 -2.921875 -1.296875q-0.90625 -0.3125 -1.8125 -0.71875q-0.90625 -0.421875 -1.625 -1.046875q-0.71875 -0.640625 -1.171875 -1.53125q-0.453125 -0.890625 -0.453125 -2.171875q0 -1.28125 0.46875 -2.296875q0.484375 -1.0312576 1.359375 -1.7500076q0.890625 -0.71875 2.140625 -1.109375q1.25 -0.390625 2.828125 -0.390625q1.859375 0 3.21875 0.40625q1.359375 0.40625 2.234375 0.875l-1.1875 3.2812576q-0.78125 -0.390625 -1.734375 -0.703125q-0.9375 -0.3125 -2.265625 -0.3125q-1.5 0 -2.15625 0.421875q-0.640625 0.40625 -0.640625 1.265625q0 0.5 0.234375 0.859375q0.234375 0.34375 0.671875 0.625q0.453125 0.265625 1.015625 0.5q0.578125 0.21875 1.265625 0.46875q1.4375 0.53125 2.5 1.046875q1.078125 0.515625 1.78125 1.21875q0.703125 0.6875 1.046875 1.625q0.359375 0.9375 0.359375 2.265625q0 2.578125 -1.8125 4.015625q-1.8125 1.421875 -5.46875 1.421875q-1.234375 0 -2.21875 -0.15625q-0.984375 -0.140625 -1.75 -0.34375q-0.75 -0.21875 -1.296875 -0.453125q-0.546875 -0.25 -0.921875 -0.46875l1.171875 -3.296875q0.828125 0.453125 2.03125 0.8125q1.21875 0.359375 2.984375 0.359375zm22.84201 3.171875q-0.296875 -0.953125 -0.65625 -1.96875q-0.359375 -1.015625 -0.703125 -2.03125l-7.203125 0q-0.34375 1.015625 -0.703125 2.03125q-0.359375 1.015625 -0.65625 1.96875l-4.3125 0q1.046875 -2.984375 1.96875 -5.515625q0.9375 -2.53125 1.828125 -4.765625q0.890625 -2.25 1.75 -4.25q0.875 -2.015625 1.8125 -3.9375076l3.96875 0q0.90625 1.9218826 1.78125 3.9375076q0.890625 2.0 1.78125 4.25q0.890625 2.234375 1.8125 4.765625q0.9375 2.53125 1.984375 5.515625l-4.453125 0zm-4.984375 -14.28125q-0.125 0.390625 -0.40625 1.09375q-0.265625 0.6875 -0.609375 1.59375q-0.34375 0.90625 -0.765625 2.0q-0.40625 1.09375 -0.828125 2.296875l5.25 0q-0.421875 -1.203125 -0.828125 -2.296875q-0.40625 -1.09375 -0.765625 -2.0q-0.359375 -0.90625 -0.625 -1.59375q-0.265625 -0.703125 -0.421875 -1.09375zm17.382004 11.109375q0.875 0 1.453125 -0.140625q0.578125 -0.15625 0.921875 -0.40625q0.34375 -0.25 0.46875 -0.59375q0.140625 -0.359375 0.140625 -0.78125q0 -0.90625 -0.859375 -1.5q-0.84375 -0.609375 -2.921875 -1.296875q-0.90625 -0.3125 -1.8125 -0.71875q-0.90625 -0.421875 -1.625 -1.046875q-0.71875 -0.640625 -1.171875 -1.53125q-0.453125 -0.890625 -0.453125 -2.171875q0 -1.28125 0.46875 -2.296875q0.484375 -1.0312576 1.359375 -1.7500076q0.890625 -0.71875 2.140625 -1.109375q1.25 -0.390625 2.828125 -0.390625q1.859375 0 3.21875 0.40625q1.359375 0.40625 2.234375 0.875l-1.1875 3.2812576q-0.78125 -0.390625 -1.734375 -0.703125q-0.9375 -0.3125 -2.265625 -0.3125q-1.5 0 -2.15625 0.421875q-0.640625 0.40625 -0.640625 1.265625q0 0.5 0.234375 0.859375q0.234375 0.34375 0.671875 0.625q0.453125 0.265625 1.015625 0.5q0.578125 0.21875 1.265625 0.46875q1.4375 0.53125 2.5 1.046875q1.078125 0.515625 1.78125 1.21875q0.703125 0.6875 1.046875 1.625q0.359375 0.9375 0.359375 2.265625q0 2.578125 -1.8125 4.015625q-1.8125 1.421875 -5.46875 1.421875q-1.234375 0 -2.21875 -0.15625q-0.984375 -0.140625 -1.75 -0.34375q-0.75 -0.21875 -1.296875 -0.453125q-0.546875 -0.25 -0.921875 -0.46875l1.171875 -3.296875q0.828125 0.453125 2.03125 0.8125q1.21875 0.359375 2.984375 0.359375z" fill-rule="nonzero"/><path fill="#000000" fill-opacity="0.0" d="m-0.0014980554 -0.0012419948l200.00323 0l0 99.99969l-200.00323 0z" fill-rule="evenodd"/><path fill="#8e3b46" d="m40.536274 71.20782q0.28125 0.03125 0.671875 0.046875q0.390625 0.015625 0.921875 0.015625q3.125 0 4.625 -1.578125q1.5 -1.578125 1.5 -4.34375q0 -2.90625 -1.4375 -4.390625q-1.4375 -1.5 -4.546875 -1.5q-0.4375 0 -0.890625 0.015625q-0.453125 0.015625 -0.84375 0.0625l0 11.671875zm12.015625 -5.859375q0 2.40625 -0.75 4.1875q-0.75 1.78125 -2.125 2.953125q-1.359375 1.171875 -3.34375 1.765625q-1.96875 0.578125 -4.421875 0.578125q-1.109375 0 -2.609375 -0.09375q-1.484375 -0.09375 -2.9375 -0.375l0 -18.0q1.453125 -0.265625 3.0 -0.359375q1.5625 -0.09375 2.6875 -0.09375q2.375 0 4.296875 0.53125q1.9375 0.53125 3.3125 1.6875q1.390625 1.140625 2.140625 2.9375q0.75 1.78125 0.75 4.28125zm3.458084 -9.21875l4.171875 0l0 18.46875l-4.171875 0l0 -18.46875zm13.470219 15.296875q0.875 0 1.453125 -0.140625q0.578125 -0.15625 0.921875 -0.40625q0.34375 -0.25 0.46875 -0.59375q0.140625 -0.359375 0.140625 -0.78125q0 -0.90625 -0.859375 -1.5q-0.84375 -0.609375 -2.921875 -1.296875q-0.90625 -0.3125 -1.8125 -0.71875q-0.90625 -0.421875 -1.625 -1.046875q-0.71875 -0.640625 -1.171875 -1.53125q-0.4531288 -0.890625 -0.4531288 -2.171875q0 -1.28125 0.4687538 -2.296875q0.484375 -1.03125 1.359375 -1.75q0.890625 -0.71875 2.140625 -1.109375q1.25 -0.390625 2.828125 -0.390625q1.859375 0 3.21875 0.40625q1.359375 0.40625 2.234375 0.875l-1.1875 3.28125q-0.78125 -0.390625 -1.734375 -0.703125q-0.9375 -0.3125 -2.265625 -0.3125q-1.5 0 -2.15625 0.421875q-0.640625 0.40625 -0.640625 1.265625q0 0.5 0.234375 0.859375q0.234375 0.34375 0.671875 0.625q0.453125 0.265625 1.015625 0.5q0.578125 0.21875 1.265625 0.46875q1.4375 0.53125 2.5 1.046875q1.078125 0.515625 1.78125 1.21875q0.703125 0.6875 1.046875 1.625q0.359375 0.9375 0.359375 2.265625q0 2.578125 -1.8125 4.015625q-1.8125 1.421875 -5.46875 1.421875q-1.234375 0 -2.21875 -0.15625q-0.984375 -0.140625 -1.75 -0.34375q-0.75 -0.21875 -1.296875 -0.453125q-0.5468788 -0.25 -0.9218788 -0.46875l1.1718788 -3.296875q0.828125 0.453125 2.03125 0.8125q1.21875 0.359375 2.984375 0.359375zm22.84201 3.171875q-0.296875 -0.953125 -0.65625 -1.96875q-0.359375 -1.015625 -0.703125 -2.03125l-7.203125 0q-0.34375 1.015625 -0.703125 2.03125q-0.359375 1.015625 -0.65625 1.96875l-4.3125 0q1.046875 -2.984375 1.96875 -5.515625q0.9375 -2.53125 1.828125 -4.765625q0.890625 -2.25 1.75 -4.25q0.875 -2.015625 1.8125 -3.9375l3.96875 0q0.90625 1.921875 1.78125 3.9375q0.890625 2.0 1.78125 4.25q0.890625 2.234375 1.8125 4.765625q0.9375 2.53125 1.984375 5.515625l-4.453125 0zm-4.984375 -14.28125q-0.125 0.390625 -0.40625 1.09375q-0.265625 0.6875 -0.609375 1.59375q-0.34375 0.90625 -0.765625 2.0q-0.40625 1.09375 -0.828125 2.296875l5.25 0q-0.421875 -1.203125 -0.828125 -2.296875q-0.40625 -1.09375 -0.765625 -2.0q-0.359375 -0.90625 -0.625 -1.59375q-0.265625 -0.703125 -0.421875 -1.09375zm18.000336 14.515625q-1.53125 0 -3.03125 -0.09375q-1.5 -0.09375 -3.140625 -0.4375l0 -17.90625q1.28125 -0.25 2.796875 -0.359375q1.53125 -0.125 2.828125 -0.125q1.765625 0 3.234375 0.265625q1.484375 0.25 2.546875 0.859375q1.078125 0.609375 1.671875 1.609375q0.609375 1.0 0.609375 2.46875q0 2.203125 -2.140625 3.484375q1.765625 0.671875 2.40625 1.828125q0.640625 1.140625 0.640625 2.578125q0 2.90625 -2.125 4.375q-2.125 1.453125 -6.296875 1.453125zm-2.109375 -8.28125l0 4.765625q0.453125 0.0625 0.984375 0.09375q0.53125 0.015625 1.171875 0.015625q1.859375 0 3.0 -0.53125q1.15625 -0.53125 1.15625 -1.96875q0 -1.28125 -0.96875 -1.828125q-0.953125 -0.546875 -2.734375 -0.546875l-2.609375 0zm0 -3.171875l2.015625 0q1.921875 0 2.75 -0.484375q0.828125 -0.5 0.828125 -1.59375q0 -1.125 -0.859375 -1.578125q-0.84375 -0.453125 -2.5 -0.453125q-0.53125 0 -1.15625 0.015625q-0.609375 0.015625 -1.078125 0.0625l0 4.03125zm26.194176 7.640625l0 3.578125l-12.343742 0l0 -18.46875l4.171875 0l0 14.890625l8.171867 0zm2.6636658 3.578125l0 -18.46875l12.484375 0l0 3.484375l-8.3125 0l0 3.625l7.375 0l0 3.421875l-7.375 0l0 4.453125l8.921875 0l0 3.484375l-13.09375 0zm20.3255 -3.390625q0.28125 0.03125 0.671875 0.046875q0.390625 0.015625 0.921875 0.015625q3.125 0 4.625 -1.578125q1.5 -1.578125 1.5 -4.34375q0 -2.90625 -1.4375 -4.390625q-1.4375 -1.5 -4.546875 -1.5q-0.4375 0 -0.890625 0.015625q-0.453125 0.015625 -0.84375 0.0625l0 11.671875zm12.015625 -5.859375q0 2.40625 -0.75 4.1875q-0.75 1.78125 -2.125 2.953125q-1.359375 1.171875 -3.34375 1.765625q-1.96875 0.578125 -4.421875 0.578125q-1.109375 0 -2.609375 -0.09375q-1.484375 -0.09375 -2.9375 -0.375l0 -18.0q1.453125 -0.265625 3.0 -0.359375q1.5625 -0.09375 2.6875 -0.09375q2.375 0 4.296875 0.53125q1.9375 0.53125 3.3125 1.6875q1.390625 1.140625 2.140625 2.9375q0.75 1.78125 0.75 4.28125z" fill-rule="nonzero"/></g></svg>