<svg version="1.1" viewBox="0.0 0.0 200.0 200.0" fill="none" stroke="none" stroke-linecap="square" stroke-miterlimit="10" xmlns:xlink="http://www.w3.org/1999/xlink" xmlns="http://www.w3.org/2000/svg"><clipPath id="p.0"><path d="m0 0l200.0 0l0 200.0l-200.0 0l0 -200.0z" clip-rule="nonzero"/></clipPath><g clip-path="url(#p.0)"><path fill="#000000" fill-opacity="0.0" d="m0 0l200.0 0l0 200.0l-200.0 0z" fill-rule="evenodd"/><path fill="#000000" fill-opacity="0.0" d="m36.17542 99.99844l127.65991 0" fill-rule="evenodd"/><path stroke="#bada55" stroke-width="3.0" stroke-linejoin="round" stroke-linecap="butt" d="m36.17542 99.99844l127.65991 0" fill-rule="evenodd"/><path fill="#000000" fill-opacity="0.0" d="m0.002702963 99.997375l200.08472 0l0 99.99968l-200.08472 0z" fill-rule="evenodd"/><path fill="#bada55" d="m56.103848 141.4255q0.875 0 1.453125 -0.140625q0.578125 -0.15625 0.921875 -0.40625q0.34375 -0.25 0.46875 -0.59375q0.140625 -0.359375 0.140625 -0.78125q0 -0.90625 -0.859375 -1.5q-0.84375 -0.609375 -2.921875 -1.296875q-0.90625 -0.3125 -1.8125 -0.71875q-0.90625 -0.421875 -1.625 -1.046875q-0.71875 -0.640625 -1.171875 -1.53125q-0.453125 -0.890625 -0.453125 -2.171875q0 -1.28125 0.46875 -2.296875q0.484375 -1.0312576 1.359375 -1.7500076q0.890625 -0.71875 2.140625 -1.109375q1.25 -0.390625 2.828125 -0.390625q1.859375 0 3.21875 0.40625q1.359375 0.40625 2.234375 0.875l-1.1875 3.2812576q-0.78125 -0.390625 -1.734375 -0.703125q-0.9375 -0.3125 -2.265625 -0.3125q-1.5 0 -2.15625 0.421875q-0.640625 0.40625 -0.640625 1.265625q0 0.5 0.234375 0.859375q0.234375 0.34375 0.671875 0.625q0.453125 0.265625 1.015625 0.5q0.578125 0.21875 1.265625 0.46875q1.4375 0.53125 2.5 1.046875q1.078125 0.515625 1.78125 1.21875q0.703125 0.6875 1.046875 1.625q0.359375 0.9375 0.359375 2.265625q0 2.578125 -1.8125 4.015625q-1.8125 1.421875 -5.46875 1.421875q-1.234375 0 -2.21875 -0.15625q-0.984375 -0.140625 -1.75 -0.34375q-0.75 -0.21875 -1.296875 -0.453125q-0.546875 -0.25 -0.921875 -0.46875l1.171875 -3.296875q0.828125 0.453125 2.03125 0.8125q1.21875 0.359375 2.984375 0.359375zm10.467007 3.171875l0 -18.468758l12.484375 0l0 3.4843826l-8.3125 0l0 3.625l7.375 0l0 3.421875l-7.375 0l0 4.453125l8.921875 0l0 3.484375l-13.09375 0zm21.5755 -18.687508q4.15625 0 6.359375 1.484375q2.21875 1.4687576 2.21875 4.5937576q0 1.953125 -0.890625 3.171875q-0.890625 1.203125 -2.578125 1.890625q0.5625 0.703125 1.171875 1.59375q0.625 0.890625 1.21875 1.859375q0.59375 0.96875 1.15625 2.03125q0.5625 1.046875 1.046875 2.0625l-4.671875 0q-0.5 -0.90625 -1.03125 -1.828125q-0.515625 -0.9375 -1.0625 -1.8125q-0.546875 -0.890625 -1.078125 -1.671875q-0.53125 -0.796875 -1.0625 -1.4375l-2.046875 0l0 6.75l-4.171875 0l0 -18.203133q1.359375 -0.265625 2.8125 -0.375q1.453125 -0.109375 2.609375 -0.109375zm0.234375 3.5468826q-0.453125 0 -0.8125 0.03125q-0.359375 0.015625 -0.671875 0.046875l0 5.015625l1.171875 0q2.34375 0 3.34375 -0.578125q1.015625 -0.59375 1.015625 -2.015625q0 -1.359375 -1.03125 -1.921875q-1.015625 -0.578125 -3.015625 -0.578125zm17.223404 15.140625q-1.09375 -2.3125 -2.171875 -4.8125q-1.0625 -2.515625 -2.015625 -4.96875q-0.953125 -2.453125 -1.765625 -4.6875q-0.8125 -2.2500076 -1.40625 -4.0000076l4.578125 0q0.546875 1.59375 1.171875 3.4531326q0.625 1.84375 1.265625 3.6875q0.65625 1.84375 1.265625 3.53125q0.625 1.671875 1.15625 2.890625q0.5 -1.21875 1.125 -2.890625q0.640625 -1.6875 1.28125 -3.53125q0.65625 -1.84375 1.28125 -3.6875q0.625 -1.8593826 1.15625 -3.4531326l4.4375 0q-0.625 1.75 -1.421875 4.0000076q-0.796875 2.234375 -1.765625 4.6875q-0.953125 2.453125 -2.015625 4.96875q-1.0625 2.5 -2.15625 4.8125l-4.0 0zm13.745743 0l0 -18.468758l12.484367 0l0 3.4843826l-8.312492 0l0 3.625l7.3749924 0l0 3.421875l-7.3749924 0l0 4.453125l8.921867 0l0 3.484375l-13.093742 0zm21.575493 -18.687508q4.15625 0 6.359375 1.484375q2.21875 1.4687576 2.21875 4.5937576q0 1.953125 -0.890625 3.171875q-0.890625 1.203125 -2.578125 1.890625q0.5625 0.703125 1.171875 1.59375q0.625 0.890625 1.21875 1.859375q0.59375 0.96875 1.15625 2.03125q0.5625 1.046875 1.046875 2.0625l-4.671875 0q-0.5 -0.90625 -1.03125 -1.828125q-0.515625 -0.9375 -1.0625 -1.8125q-0.546875 -0.890625 -1.078125 -1.671875q-0.53125 -0.796875 -1.0625 -1.4375l-2.046875 0l0 6.75l-4.171875 0l0 -18.203133q1.359375 -0.265625 2.8125 -0.375q1.453125 -0.109375 2.609375 -0.109375zm0.234375 3.5468826q-0.453125 0 -0.8125 0.03125q-0.359375 0.015625 -0.671875 0.046875l0 5.015625l1.171875 0q2.34375 0 3.34375 -0.578125q1.015625 -0.59375 1.015625 -2.015625q0 -1.359375 -1.03125 -1.921875q-1.015625 -0.578125 -3.015625 -0.578125z" fill-rule="nonzero"/><path fill="#000000" fill-opacity="0.0" d="m0.003751181 -0.0012419948l200.00323 0l0 99.99969l-200.00323 0z" fill-rule="evenodd"/><path fill="#bada55" d="m67.668755 60.973442q0 1.015625 -0.40625 1.953125q-0.390625 0.921875 -1.03125 1.796875q-0.640625 0.859375 -1.4375 1.671875q-0.7968788 0.796875 -1.5781288 1.515625q-0.390625 0.375 -0.859375 0.84375q-0.46875 0.453125 -0.90625 0.9375q-0.421875 0.484375 -0.75 0.90625q-0.328125 0.40625 -0.40625 0.671875l7.937504 0l0 3.328125l-12.312504 0q-0.0625 -0.296875 -0.0625 -0.75q0 -0.453125 0 -0.640625q0 -1.28125 0.40625 -2.34375q0.421875 -1.0625 1.09375 -1.984375q0.671875 -0.921875 1.5 -1.71875q0.84375 -0.796875 1.671875 -1.59375q0.640625 -0.625 1.203125 -1.171875q0.5625 -0.546875 0.984375 -1.0625q0.421875 -0.515625 0.65625 -1.03125q0.25 -0.53125 0.25 -1.0625q0 -1.171875 -0.671875 -1.640625q-0.65625 -0.484375 -1.65625 -0.484375q-0.71875 0 -1.34375 0.234375q-0.625 0.21875 -1.140625 0.53125q-0.515625 0.296875 -0.890625 0.609375q-0.375 0.296875 -0.5625 0.484375l-1.96875 -2.765625q1.171875 -1.09375 2.71875 -1.796875q1.5625 -0.71875 3.359375 -0.71875q1.625 0 2.7968788 0.375q1.171875 0.375 1.921875 1.0625q0.765625 0.671875 1.125 1.65625q0.359375 0.96875 0.359375 2.1875zm16.156326 4.34375q0 4.671875 -1.78125 7.171875q-1.765625 2.484375 -4.875 2.484375q-3.125 0 -4.90625 -2.484375q-1.765625 -2.5 -1.765625 -7.171875q0 -2.3125 0.46875 -4.09375q0.46875 -1.796875 1.34375 -3.015625q0.875 -1.234375 2.09375 -1.875q1.234375 -0.640625 2.765625 -0.640625q3.109375 0 4.875 2.5q1.78125 2.484375 1.78125 7.125zm-4.046875 0q0 -1.375 -0.140625 -2.5q-0.125 -1.140625 -0.421875 -1.96875q-0.296875 -0.828125 -0.8125 -1.28125q-0.5 -0.453125 -1.234375 -0.453125q-0.75 0 -1.25 0.453125q-0.484375 0.453125 -0.796875 1.28125q-0.3125 0.828125 -0.453125 1.96875q-0.125 1.125 -0.125 2.5q0 1.390625 0.125 2.546875q0.140625 1.140625 0.453125 1.96875q0.3125 0.828125 0.796875 1.28125q0.5 0.453125 1.25 0.453125q0.734375 0 1.234375 -0.453125q0.515625 -0.453125 0.8125 -1.28125q0.296875 -0.828125 0.421875 -1.96875q0.140625 -1.15625 0.140625 -2.546875zm19.187576 0q0 4.671875 -1.78125 7.171875q-1.765625 2.484375 -4.875 2.484375q-3.125 0 -4.90625 -2.484375q-1.765625 -2.5 -1.765625 -7.171875q0 -2.3125 0.46875 -4.09375q0.46875 -1.796875 1.34375 -3.015625q0.875 -1.234375 2.09375 -1.875q1.234375 -0.640625 2.765625 -0.640625q3.109375 0 4.875 2.5q1.78125 2.484375 1.78125 7.125zm-4.046875 0q0 -1.375 -0.140625 -2.5q-0.125 -1.140625 -0.421875 -1.96875q-0.296875 -0.828125 -0.8125 -1.28125q-0.5 -0.453125 -1.234375 -0.453125q-0.75 0 -1.25 0.453125q-0.484375 0.453125 -0.796875 1.28125q-0.3125 0.828125 -0.453125 1.96875q-0.125 1.125 -0.125 2.5q0 1.390625 0.125 2.546875q0.140625 1.140625 0.453125 1.96875q0.3125 0.828125 0.796875 1.28125q0.5 0.453125 1.25 0.453125q0.734375 0 1.234375 -0.453125q0.515625 -0.453125 0.8125 -1.28125q0.296875 -0.828125 0.421875 -1.96875q0.140625 -1.15625 0.140625 -2.546875zm16.975677 0.03125q0 1.359375 0.328125 2.453125q0.34375 1.09375 0.96875 1.890625q0.625 0.78125 1.53125 1.203125q0.90625 0.421875 2.078125 0.421875q1.140625 0 2.0625 -0.421875q0.921875 -0.421875 1.546875 -1.203125q0.625 -0.796875 0.953125 -1.890625q0.34375 -1.09375 0.34375 -2.453125q0 -1.359375 -0.34375 -2.46875q-0.328125 -1.109375 -0.953125 -1.890625q-0.625 -0.78125 -1.546875 -1.203125q-0.921875 -0.4375 -2.0625 -0.4375q-1.171875 0 -2.078125 0.4375q-0.90625 0.4375 -1.53125 1.234375q-0.625 0.78125 -0.96875 1.890625q-0.328125 1.109375 -0.328125 2.4375zm14.09375 0q0 2.375 -0.703125 4.171875q-0.703125 1.796875 -1.9375 3.015625q-1.21875 1.203125 -2.921875 1.828125q-1.6875 0.609375 -3.625 0.609375q-1.890625 0 -3.578125 -0.609375q-1.671875 -0.625 -2.9375 -1.828125q-1.25 -1.21875 -1.96875 -3.015625q-0.71875 -1.796875 -0.71875 -4.171875q0 -2.375 0.75 -4.171875q0.75 -1.796875 2.015625 -3.015625q1.265625 -1.234375 2.921875 -1.84375q1.671875 -0.625 3.515625 -0.625q1.890625 0 3.5625 0.625q1.6875 0.609375 2.9375 1.84375q1.25 1.21875 1.96875 3.015625q0.71875 1.796875 0.71875 4.171875zm14.370857 9.25q-0.5625 -0.90625 -1.328125 -1.953125q-0.75 -1.0625 -1.640625 -2.109375q-0.890625 -1.0625 -1.859375 -2.03125q-0.953125 -0.96875 -1.90625 -1.71875l0 7.8125l-4.171875 0l0 -18.46875l4.171875 0l0 6.984375q1.625 -1.703125 3.265625 -3.5625q1.640625 -1.859375 3.046875 -3.421875l4.9375 0q-1.90625 2.234375 -3.8125 4.3125q-1.90625 2.078125 -4.0 4.1875q2.203125 1.84375 4.265625 4.375q2.078125 2.53125 3.96875 5.59375l-4.9375 0z" fill-rule="nonzero"/></g></svg>